/* XPM */
static char *SD_2008_right[] = {
/* columns rows colors chars-per-pixel */
"36 35 73 1 ",
"  c None",
". c #48506C",
"X c #525D86",
"o c #5F6EA5",
"O c #6B7EC3",
"+ c #7284C6",
"@ c #758BDD",
"# c #8E8F8F",
"$ c #919292",
"% c #929393",
"& c #979898",
"* c #999A9A",
"= c #9A9B9B",
"- c #8497E1",
"; c #BBC6EE",
": c #C1C1C1",
"> c gray76",
", c #C2C3C3",
"< c #C3C4C4",
"1 c #C5C5C5",
"2 c #C7C9CE",
"3 c #C8C8C8",
"4 c #C9CACA",
"5 c #D2D3D3",
"6 c gray83",
"7 c #D8D8D8",
"8 c #DADADA",
"9 c gray86",
"0 c #DDDDDD",
"q c gray87",
"w c #DFDFDF",
"e c #C7CEE8",
"r c #D4D7E1",
"t c #D2D9F4",
"y c #DFE0E5",
"u c #DFE2ED",
"i c #D8E0FA",
"p c gray88",
"a c #E1E1E1",
"s c #E2E2E2",
"d c #E4E4E4",
"f c gray90",
"g c #E6E6E6",
"h c #E7E7E7",
"j c gray91",
"k c #E9E9E9",
"l c #EAEAEA",
"z c gray92",
"x c #ECECEC",
"c c gray93",
"v c #EEEEEE",
"b c #EFEFEF",
"n c #E8ECFC",
"m c gray94",
"M c #F0F1F1",
"N c #F1F1F1",
"B c gray95",
"V c #F3F3F3",
"C c #F4F4F4",
"Z c gray96",
"A c #F6F6F6",
"S c gray97",
"D c #F0F3FD",
"F c #F8F8F8",
"G c #F9F9F9",
"H c #F9F9FA",
"J c gray98",
"K c #FBFBFB",
"L c gray99",
"P c #FDFDFD",
"I c #FDFDFE",
"U c #FEFEFE",
"Y c white",
/* pixels */
"   YYYYYYYYYYYYYYYYYYYYYYYYYYYYYY   ",
"  YYYYYYYYYYYYYYYYYYYYYYYYYYYYYYYY  ",
" YYV1=########################=1VYY ",
"YYB%5AUUUUUUUUUUUUUUUUUUUUUUUUA5%BYY",
"YY<6UUUUUUUUUUUUUUUUUUUUUUUUUUUU6<YY",
"YY&FUUUUUUUUUUUUUUUUUUUUUUUUUUUUG&YY",
"YY#UUUUUUUUUUUUUUUUUUUUUUUUUUUUUY#YY",
"YY#UUUUUUUUUUUUUUUUUUUUUUUUUUUUUY#YY",
"YY#UUUUUUUUUUUUUUUUUUUUUUUUUUUUUU#YY",
"YY#UPPPPPPPPPPPPPPPPPPPPPPPPPPPPU#YY",
"YY#PLLLLLLLLLLLLLLLLLLLLLLLLLLLLU#YY",
"YY#LJJKLJJJJJJJJJJJJJJJJJJJJJJJKU#YY",
"YY#KGJDtLGGGGGGGGGGGGGGGGGGGGGGJL#YY",
"YY#JFJi-eLFFFFFFFFFFFFFFFFFFFFFGL#YY",
"YY#GSGi@+uISSSSSSSSSSSSSSSSSSSSFL#YY",
"YY#FZFi@OorHZZZZZZZZZZZZZZZZZZZAK#YY",
"YY#SVSi@OoXyJVVVVVVVVVVVVVVVVVVZJ#YY",
"YY#ANZi@OoX.2ZNNNNNNNNNNNNNNNNNVJ#YY",
"YY#cfci@OoXyCffffffffffffffffffkZ#YY",
"YY#lali@OorHsaaaaaaaaaaaaaaaaaagC#YY",
"YY#j0hi@+uIq0000000000000000000sB#YY",
"YY#f8fi-ev888888888888888888888pN#YY",
"YY#d7wn;z7777777777777777777777qm#YY",
"YY#d77wz97777777777777777777777qm#YY",
"YY#d777777777777777777777777777qm#YY",
"YY#d777777777777777777777777777qm#YY",
"YY#d777777777777777777777777777qm#YY",
"YY#d777777777777777777777777777qm#YY",
"YY#f777777777777777777777777777qm#YY",
"YY&a977777777777777777777777778sx&YY",
"YY<,fwqqqqqqqqqqqqqqqqqqqqqqqqsx3>YY",
"YYB$3jmmmmmmmmmmmmmmmmmmmmmmmml4$MYY",
" YYb:*########################*:bYY ",
"  YYYYYYYYYYYYYYYYYYYYYYYYYYYYYYYY  ",
"   YYYYYYYYYYYYYYYYYYYYYYYYYYYYYY   "
};
