/* XPM */
static char *SD_2008_base[] = {
/* columns rows colors chars-per-pixel */
"77 75 85 1 ",
"  c None",
". c #8E8F8F",
"X c #8F9090",
"o c #919292",
"O c #999A9A",
"+ c #9A9A9A",
"@ c #9A9B9B",
"# c gray61",
"$ c #9C9D9D",
"% c #9E9F9F",
"& c #9FA0A0",
"* c #A5A5A5",
"= c #ABACAC",
"- c gray68",
"; c #AEAEAE",
": c #AEAFAF",
"> c #AFB0B0",
", c #B6B7B7",
"< c #B9B9B9",
"1 c gray73",
"2 c #BABBBB",
"3 c #BBBBBB",
"4 c #BBBCBC",
"5 c #BCBCBC",
"6 c #BCBDBD",
"7 c gray74",
"8 c #BDBEBE",
"9 c gray",
"0 c #C0C1C1",
"q c gray76",
"w c #C3C4C4",
"e c #C8C8C8",
"r c #C8C9C9",
"t c #C9CACA",
"y c #CACACA",
"u c #CCCDCD",
"i c #CDCECE",
"p c #CECFCF",
"a c gray81",
"s c #CFD0D0",
"d c #D2D2D2",
"f c #D7D7D7",
"g c #D8D8D8",
"h c gray85",
"j c #DADADA",
"k c gray86",
"l c gainsboro",
"z c #DDDDDD",
"x c gray87",
"c c #DFDFDF",
"v c gray88",
"b c #E1E1E1",
"n c #E2E2E2",
"m c gray89",
"M c #E4E4E4",
"N c gray90",
"B c #E6E6E6",
"V c #E6E7E7",
"C c #E7E7E7",
"Z c gray91",
"A c #E8E9E9",
"S c #E9E9E9",
"D c #EAEAEA",
"F c gray92",
"G c #ECECEC",
"H c gray93",
"J c #EEEEEE",
"K c #EFEFEF",
"L c gray94",
"P c #F0F1F1",
"I c #F1F1F1",
"U c gray95",
"Y c #F3F3F3",
"T c #F4F4F4",
"R c gray96",
"E c #F6F6F6",
"W c gray97",
"Q c #F8F8F8",
"! c #F9F9F9",
"~ c gray98",
"^ c #FBFBFB",
"/ c gray99",
"( c #FDFDFD",
") c #FEFEFE",
"_ c white",
/* pixels */
"           _______________________________________________________           ",
"        _____________________________________________________________        ",
"      ____Ys:*X...............................................X*:sY____      ",
"     ___D4%eVJ)))))))))))))))))))))))))))))))))))))))))))))))))JCe%4D___     ",
"    ___q$k)))))))))))))))))))))))))))))))))))))))))))))))))))))))))k$q___    ",
"   __/7,^)))))))))))))))))))))))))))))))))))))))))))))))))))))))))))^,7/__   ",
"  ___9t)))))))))))))))))))))))))))))))))))))))))))))))))))))))))))))))t9___  ",
"  __w<)))))))))))))))))))))))))))))))))))))))))))))))))))))))))))))))))<w___ ",
" __D%~)))))))))))))))))))))))))))))))))))))))))))))))))))))))))))))))))~%D__ ",
" __4k)))))))))))))))))))))))))))))))))))))))))))))))))))))))))))))))))))k4__ ",
" _U&)))))))))))))))))))))))))))))))))))))))))))))))))))))))))))))))))))))&U__",
"__yi)))))))))))))))))))))))))))))))))))))))))))))))))))))))))))))))))))))iy__",
"__=S)))))))))))))))))))))))))))))))))))))))))))))))))))))))))))))))))))))A-__",
"__@E)))))))))))))))))))))))))))))))))))))))))))))))))))))))))))))))))))))W@__",
"__o/)))))))))))))))))))))))))))))))))))))))))))))))))))))))))))))))))))))(o__",
"__.))))))))))))))))))))))))))))))))))))))))))))))))))))))))))))))))))))))).__",
"__.))))))))))))))))))))))))))))))))))))))))))))))))))))))))))))))))))))))).__",
"__.)((((((((((((((((((((((((((((((((((((((((((((((((((((((((((((((((((((().__",
"__.(////////////////////////////////////////////////////////////////////().__",
"__.(////////////////////////////////////////////////////////////////////().__",
"__.(/////////////////////////////////////////////////////////////////////).__",
"__./^^^^^^^^^^^^^^^^^^^^^^^^^^^^^^^^^^^^^^^^^^^^^^^^^^^^^^^^^^^^^^^^^^^^/).__",
"__./~~~~~~~~~~~~~~~~~~~~~~~~~~~~~~~~~~~~~~~~~~~~~~~~~~~~~~~~~~~~~~~~~~~~^).__",
"__./~~~~~~~~~~~~~~~~~~~~~~~~~~~~~~~~~~~~~~~~~~~~~~~~~~~~~~~~~~~~~~~~~~~~^).__",
"__.^~~~~~~~~~~~~~~~~~~~~~~~~~~~~~~~~~~~~~~~~~~~~~~~~~~~~~~~~~~~~~~~~~~~~~(.__",
"__.^!!!!!!!!!!!!!!!!!!!!!!!!!!!!!!!!!!!!!!!!!!!!!!!!!!!!!!!!!!!!!!!!!!!!~/.__",
"__.~QQQQQQQQQQQQQQQQQQQQQQQQQQQQQQQQQQQQQQQQQQQQQQQQQQQQQQQQQQQQQQQQQQQQ!/.__",
"__.~QQQQQQQQQQQQQQQQQQQQQQQQQQQQQQQQQQQQQQQQQQQQQQQQQQQQQQQQQQQQQQQQQQQQ!/.__",
"__.~WWWWWWWWWWWWWWWWWWWWWWWWWWWWWWWWWWWWWWWWWWWWWWWWWWWWWWWWWWWWWWWWWWWWQ/.__",
"__.!WWWWWWWWWWWWWWWWWWWWWWWWWWWWWWWWWWWWWWWWWWWWWWWWWWWWWWWWWWWWWWWWWWWWQ/.__",
"__.QEEEEEEEEEEEEEEEEEEEEEEEEEEEEEEEEEEEEEEEEEEEEEEEEEEEEEEEEEEEEEEEEEEEEW/.__",
"__.QRRRRRRRRRRRRRRRRRRRRRRRRRRRRRRRRRRRRRRRRRRRRRRRRRRRRRRRRRRRRRRRRRRRRW^.__",
"__.QRRRRRRRRRRRRRRRRRRRRRRRRRRRRRRRRRRRRRRRRRRRRRRRRRRRRRRRRRRRRRRRRRRRRE^.__",
"__.WTTTTTTTTTTTTTTTTTTTTTTTTTTTTTTTTTTTTTTTTTTTTTTTTTTTTTTTTTTTTTTTTTTTTE^.__",
"__.WYYYYYYYYYYYYYYYYYYYYYYYYYYYYYYYYYYYYYYYYYYYYYYYYYYYYYYYYYYYYYYYYYYYYR~.__",
"__.WYYYYYYYYYYYYYYYYYYYYYYYYYYYYYYYYYYYYYYYYYYYYYYYYYYYYYYYYYYYYYYYYYYYYR~.__",
"__.EIIIIIIIIIIIIIIIIIIIIIIIIIIIIIIIIIIIIIIIIIIIIIIIIIIIIIIIIIIIIIIIIIIIIY~.__",
"__.RLLLLLLLLLLLLLLLLLLLLLLLLLLLLLLLLLLLLLLLLLLLLLLLLLLLLLLLLLLLLLLLLLLLLU!.__",
"__.JBBBBBBBBBBBBBBBBBBBBBBBBBBBBBBBBBBBBBBBBBBBBBBBBBBBBBBBBBBBBBBBBBBBBDR.__",
"__.HNNNNNNNNNNNNNNNNNNNNNNNNNNNNNNNNNNNNNNNNNNNNNNNNNNNNNNNNNNNNNNNNNNNNSR.__",
"__.GmmmmmmmmmmmmmmmmmmmmmmmmmmmmmmmmmmmmmmmmmmmmmmmmmmmmmmmmmmmmmmmmmmmmCT.__",
"__.DbbbbbbbbbbbbbbbbbbbbbbbbbbbbbbbbbbbbbbbbbbbbbbbbbbbbbbbbbbbbbbbbbbbbBT.__",
"__.SccccccccccccccccccccccccccccccccccccccccccccccccccccccccccccccccccccMY.__",
"__.ZxxxxxxxxxxxxxxxxxxxxxxxxxxxxxxxxxxxxxxxxxxxxxxxxxxxxxxxxxxxxxxxxxxxxmY.__",
"__.CllllllllllllllllllllllllllllllllllllllllllllllllllllllllllllllllllllbU.__",
"__.BkkkkkkkkkkkkkkkkkkkkkkkkkkkkkkkkkkkkkkkkkkkkkkkkkkkkkkkkkkkkkkkkkkkkvI.__",
"__.NjjjjjjjjjjjjjjjjjjjjjjjjjjjjjjjjjjjjjjjjjjjjjjjjjjjjjjjjjjjjjjjjjjjjvI.__",
"__.NhhhhhhhhhhhhhhhhhhhhhhhhhhhhhhhhhhhhhhhhhhhhhhhhhhhhhhhhhhhhhhhhhhhhcL.__",
"__.MggggggggggggggggggggggggggggggggggggggggggggggggggggggggggggggggggggxL.__",
"__.MggggggggggggggggggggggggggggggggggggggggggggggggggggggggggggggggggggxL.__",
"__.MggggggggggggggggggggggggggggggggggggggggggggggggggggggggggggggggggggxL.__",
"__.MggggggggggggggggggggggggggggggggggggggggggggggggggggggggggggggggggggxL.__",
"__.MggggggggggggggggggggggggggggggggggggggggggggggggggggggggggggggggggggxL.__",
"__.MggggggggggggggggggggggggggggggggggggggggggggggggggggggggggggggggggggxL.__",
"__.MggggggggggggggggggggggggggggggggggggggggggggggggggggggggggggggggggggxL.__",
"__.MggggggggggggggggggggggggggggggggggggggggggggggggggggggggggggggggggggxL.__",
"__.MggggggggggggggggggggggggggggggggggggggggggggggggggggggggggggggggggggxL.__",
"__.MggggggggggggggggggggggggggggggggggggggggggggggggggggggggggggggggggggxL.__",
"__.MggggggggggggggggggggggggggggggggggggggggggggggggggggggggggggggggggggxL.__",
"__.MggggggggggggggggggggggggggggggggggggggggggggggggggggggggggggggggggggxL.__",
"__omhgggggggggggggggggggggggggggggggggggggggggggggggggggggggggggggggggggcKo__",
"__@xjgggggggggggggggggggggggggggggggggggggggggggggggggggggggggggggggggghbZ@__",
"__=dlggggggggggggggggggggggggggggggggggggggggggggggggggggggggggggggggggjMj-__",
"__y6vgggggggggggggggggggggggggggggggggggggggggggggggggggggggggggggggggglD0y__",
" _P#BjgggggggggggggggggggggggggggggggggggggggggggggggggggggggggggggggghbI$P__",
" __4rbhgggggggggggggggggggggggggggggggggggggggggggggggggggggggggggggghzSp4__ ",
" __DOBzhgggggggggggggggggggggggggggggggggggggggggggggggggggggggggggggkMJ@D__ ",
" ___q;BzhgggggggggggggggggggggggggggggggggggggggggggggggggggggggggghknK>q___ ",
"  ___72CcjgggggggggggggggggggggggggggggggggggggggggggggggggggggggghzMK87___  ",
"   __/7:SmzkjhggggggggggggggggggggggggggggggggggggggggggggggggghjlbSJ>7/__   ",
"    ___qOuGCnvxxxxxxxxxxxxxxxxxxxxxxxxxxxxxxxxxxxxxxxxxxxxxxxxcnNFIa@q____   ",
"     ___A1+3fxLLL_______LLLLLLLLLLLLLLLLLLLLLLLLLLLLLLLLLLLLLLIvh5@1A____    ",
"      ____Ys:*.................................................*:sY____      ",
"       _______________________________________________________________       ",
"          _________________________________________________________          "
};
