/* XPM */
static char *SD_2008_right_h[] = {
/* columns rows colors chars-per-pixel */
"36 35 101 2 ",
"   c None",
".  c #48506C",
"X  c #525D86",
"o  c #5F6EA5",
"O  c #6B7EC3",
"+  c #1D94FD",
"@  c #209EFD",
"#  c #20A6FD",
"$  c #21ABFD",
"%  c #4A8EC0",
"&  c #4A90C5",
"*  c #5E97C1",
"=  c #7284C6",
"-  c #639AC2",
";  c #758BDD",
":  c #4DBBF3",
">  c #4AB3FD",
",  c #48B9FF",
"<  c #51BDF3",
"1  c #00C1FA",
"2  c #0BC0FA",
"3  c #00CCFD",
"4  c #03D1FD",
"5  c #13DBFD",
"6  c #1DDCFD",
"7  c #20DDFD",
"8  c #25E0FD",
"9  c #2BE4FD",
"0  c #5CC1F5",
"q  c #41DDFC",
"w  c #64C4F5",
"e  c #6CC6F5",
"r  c #6EC8F5",
"t  c #70C7F5",
"y  c #75CBF6",
"u  c #7DCEF6",
"i  c #78D1F7",
"p  c #4EE1FD",
"a  c #61E6FE",
"s  c #68E7FD",
"d  c #66ECFE",
"f  c #6BEBFE",
"g  c #70EBFE",
"h  c #7AECFE",
"j  c #74F2FE",
"k  c #7CF5FF",
"l  c #8497E1",
"z  c #BDC3C5",
"x  c #83CFF7",
"c  c #85D0F7",
"v  c #8BD2F7",
"b  c #87D1F8",
"n  c #8FD4F8",
"m  c #91D4F7",
"M  c #94D6F8",
"N  c #98D7F8",
"B  c #9CD9F8",
"V  c #BBC6EE",
"C  c #A4DBF9",
"Z  c #ACDEF9",
"A  c #85ECFE",
"S  c #8DEDFE",
"D  c #95EEFE",
"F  c #9CEFFE",
"G  c #84F5FF",
"H  c #8DF1FE",
"J  c #87F9FF",
"K  c #89FAFF",
"L  c #AEE0FA",
"P  c #B3E1FA",
"I  c #BAE4FA",
"U  c #A3F0FE",
"Y  c #ACFAFF",
"T  c #B5FAFF",
"R  c #BCFBFF",
"E  c #C2C5C6",
"W  c #C7C9CE",
"Q  c #C7CEE8",
"!  c #D4D7E1",
"~  c #D2D9F4",
"^  c #DFE0E5",
"/  c #DFE2ED",
"(  c #C1E7FB",
")  c #C4E9FB",
"_  c #CCECFC",
"`  c #D8E0FA",
"'  c #D4EFFC",
"]  c #CFF1FC",
"[  c #C4FBFF",
"{  c #CBFCFF",
"}  c #D7F0FD",
"|  c #DCF2FC",
" . c #EFEFEF",
".. c #E8ECFC",
"X. c #E3F4FD",
"o. c #EAF7FE",
"O. c #EEF9FE",
"+. c #F2F2F2",
"@. c #F0F3FD",
"#. c #F0F9FE",
"$. c #FFFFFF",
/* pixels */
"      $.$.$.$.$.$.$.$.$.$.$.$.$.$.$.$.$.$.$.$.$.$.$.$.$.$.$.$.$.$.      ",
"    $.$.$.$.$.$.$.$.$.$.$.$.$.$.$.$.$.$.$.$.$.$.$.$.$.$.$.$.$.$.$.$.    ",
"  $.$.+.E - % % % % % % % % % % % % % % % % % % % % % % % % - E +.$.$.  ",
"$.$.+.& , G Y T R R [ { { { { { { { { { { { { { { [ [ R R Y S , & +.$.$.",
"$.$.z , _ | | X.X.o.o.o.o.o.o.#.o.o.o.o.#.o.o.o.O.O.X.O.X.X.| | > z $.$.",
"$.$.* d ' | | X.X.X.o.o.o.o.o.o.o.o.o.o.o.o.o.o.X.X.O.X.X.| | | j * $.$.",
"$.$.% k } | | X.X.o.o.o.o.#.o.o.o.o.o.#.o.o.o.#.O.X.X.X.X.| | | K % $.$.",
"$.$.% k } | | X.X.X.o.o.o.o.o.o.o.#.o.o.#.o.o.o.o.o.O.X.X.| | | K % $.$.",
"$.$.% k ' } | X.X.X.X.O.o.o.o.o.o.o.o.o.o.o.o.o.o.o.o.X.X.| | | J % $.$.",
"$.$.% k _ } | | X.X.X.X.o.o.o.X.o.o.o.o.o.X.o.o.o.X.X.X.| | } | J % $.$.",
"$.$.% j _ ' | | X.X.X.O.o.o.o.o.X.o.o.o.o.o.o.o.X.o.X.X.| } } } J % $.$.",
"$.$.& j _ _ | X.| | X.X.X.X.X.X.X.X.X.o.X.X.X.X.X.X.X.| | } ] } G % $.$.",
"$.$.% j ) ' o.~ O.| X.X.X.X.X.X.X.X.X.X.X.X.X.X.X.X.X.| | } ] _ G % $.$.",
"$.$.% g ( | ` l Q O.| X.X.X.X.X.X.X.X.X.X.X.X.X.| X.| | } } _ _ G % $.$.",
"$.$.% f I } ` ; = / $.| | X.X.X.X.X.X.X.X.X.X.X.| | | ' ' ] ) ) k % $.$.",
"$.$.% f I } ` ; = o ! #.| | | | | | | | | | | | | | } ' ' _ ) ) k % $.$.",
"$.$.% d I ' ` ; O o X ! #.| | | | ..| | | | | | | } ' ' _ _ I ) k % $.$.",
"$.$.% a C _ ` ; O o X . W X.` | ' ' ' | | | / } } } ' _ _ I I I h % $.$.",
"$.$.% 4 y C ` ; O o X  .X.( I I ( I I ( I I I I I I P L C B v n 9 % $.$.",
"$.$.% 3 e C ` ; O o ! +.I I I I I P I I I I I I P P Z C B m i c 9 % $.$.",
"$.$.% 3 < B ` ; = / $.Z P P P P P P P P P P P P P Z C B M v y u 8 % $.$.",
"$.$.% 1 < N ` l Q ' C Z Z Z Z Z Z Z Z P Z P P Z Z C C N n i r t 7 % $.$.",
"$.$.% 1 : u ..V ) N C C Z Z Z Z Z Z Z Z Z Z Z Z Z C B N v u e r 6 % $.$.",
"$.$.% 1 : w m ( B N C C Z Z Z Z Z Z Z Z Z Z Z Z C C B m v u e r 6 % $.$.",
"$.$.% 1 : w t x m N C C Z Z Z Z Z Z Z Z Z Z Z Z C C B M v u e e 6 % $.$.",
"$.$.% 1 : w t v m N C C Z Z Z Z Z Z L Z Z Z Z Z Z C B M v u e e 6 % $.$.",
"$.$.% 1 : w u x m N C C Z Z Z Z Z Z Z Z Z L Z Z Z C C m v u e e 6 % $.$.",
"$.$.% 1 : w u x m N C C Z Z Z Z Z Z Z Z Z Z Z Z C C C N v u e e 6 % $.$.",
"$.$.% 1 : w y x m N C Z Z Z Z Z Z Z Z Z Z Z Z Z C C B M v u e e 7 % $.$.",
"$.$.* 2 < e u x m N C C Z Z Z Z L Z Z Z Z C Z Z Z C C M v u t u 5 * $.$.",
"$.$.z + u u v M C Z Z P P I I I I I I I I I I I I P L C B M m B + z $.$.",
"$.$.+.& # q s h A S D F U U U U U U U U U U U U U D D A A g p $ & +.$.$.",
"  $.$. .z - % % % % % % % % % % % % % % % % % % % % % % % % - z  .$.$.  ",
"    $.$.$.$.$.$.$.$.$.$.$.$.$.$.$.$.$.$.$.$.$.$.$.$.$.$.$.$.$.$.$.$.    ",
"      $.$.$.$.$.$.$.$.$.$.$.$.$.$.$.$.$.$.$.$.$.$.$.$.$.$.$.$.$.$.      "
};
