/* XPM */
static char *SD_2008_bottom_h[] = {
/* columns rows colors chars-per-pixel */
"35 36 98 2 ",
"   c None",
".  c #48506C",
"X  c #525D86",
"o  c #5F6EA5",
"O  c #6B7EC3",
"+  c #1D96FD",
"@  c #2091FD",
"#  c #21A2FD",
"$  c #20A8FD",
"%  c #4A8EC0",
"&  c #4A90C5",
"*  c #5E97C1",
"=  c #639AC2",
"-  c #758BDD",
";  c #4AA9FD",
":  c #49B3FE",
">  c #48B9FF",
",  c #54BDF3",
"<  c #5ABFF4",
"1  c #00C3FA",
"2  c #0BC2FA",
"3  c #00CBFD",
"4  c #01D4FC",
"5  c #0ED5FD",
"6  c #03DBFC",
"7  c #3CDEFD",
"8  c #0BE3FF",
"9  c #5DC1F3",
"0  c #49DEFC",
"q  c #63C3F4",
"w  c #6BC6F5",
"e  c #6DC8F6",
"r  c #71C8F5",
"t  c #7CCDF6",
"y  c #7CD3F7",
"u  c #5BF1FD",
"i  c #65E6FE",
"p  c #64EFFF",
"a  c #6CEBFE",
"s  c #73EDFE",
"d  c #7EEBFE",
"f  c #66F1FF",
"g  c #6CF4FF",
"h  c #7CF4FF",
"j  c #73F9FF",
"k  c #879AE1",
"l  c #BDC3C5",
"z  c #82CFF6",
"x  c #84D0F7",
"c  c #8BD2F7",
"v  c #84D1F8",
"b  c #8CD3F8",
"n  c #91D4F7",
"m  c #94D6F8",
"M  c #99D7F8",
"N  c #90DAF8",
"B  c #9CD9F8",
"V  c #A4DBF9",
"C  c #ACDEF9",
"Z  c #84EBFE",
"A  c #8DEDFE",
"S  c #93EEFE",
"D  c #9CEFFE",
"F  c #81F5FF",
"G  c #8CF1FE",
"H  c #AEE0FA",
"J  c #B4E1FA",
"K  c #BAE4FA",
"L  c #A3F0FE",
"P  c #A6FAFF",
"I  c #AEFAFF",
"U  c #B5FAFF",
"Y  c #BCFBFF",
"T  c #C2C5C6",
"R  c #D2D4DB",
"E  c #D9DADE",
"W  c #CBD1EA",
"Q  c #D0D4E5",
"!  c #C5CEF1",
"~  c #CBD3F2",
"^  c #C1E7FB",
"/  c #C4E9FB",
"(  c #CCEBFB",
")  c #D4EEFC",
"_  c #C4FBFF",
"`  c #CBFCFF",
"'  c #D6F0FC",
"]  c #DCF1FD",
"[  c #E0E2EA",
"{  c #EFEFEF",
"}  c #E5EAFC",
"|  c #E3F4FD",
" . c #E9F7FE",
".. c #EEF9FE",
"X. c #F2F2F2",
"o. c #F2F5FD",
"O. c #F5FBFF",
"+. c #FFFFFF",
/* pixels */
"      +.+.+.+.+.+.+.+.+.+.+.+.+.+.+.+.+.+.+.+.+.+.+.+.+.+.+.+.+.      ",
"    +.+.+.+.+.+.+.+.+.+.+.+.+.+.+.+.+.+.+.+.+.+.+.+.+.+.+.+.+.+.+.    ",
"  +.+.X.T = % % % % % % % % % % % % % % % % % % % % % % % = l X.+.+.  ",
"+.+.X.& > G I U Y _ ` ` ` ` ` ` ` ` ` ` ` ` ` ` _ _ Y U P F : & X.+.+.",
"+.+.l : ' ] ] | |  . . . . . . . . . . . . . . . .| | | ] ] ' ; l +.+.",
"+.+.* g ' ] | | |  . . .....O.o...O.O... .O. . . . .| | ] ] ' u * +.+.",
"+.+.% F ' ] ] | |  . . .o.} } } } } } } } } o. . .| | ] ] ' ' j % +.+.",
"+.+.& h ) ] | | |  . .O.~ k - - - - - - - k ! O. . .| | ] ' ] j % +.+.",
"+.+.% h ) ] ] | |  . . .O.W O O O O O O O W o. . .| | ] ] ' ' j % +.+.",
"+.+.% h ) ] ] | | |  . . .O.Q o o o o o Q O. . . .| | ] ] ' ' j % +.+.",
"+.+.% h ( ' ] ] | | | |  . .O.[ X X X [ O. . .| | | ] ] ' ' ( j % +.+.",
"+.+.% h ( ) ' ] ] |  .| |  . .O.R . R O. . . .| | ] | ] ' ( ( g % +.+.",
"+.+.% h / ) ) ' ] | | | | | | | +.E +.| | | | | | ] ' ' ( ( / g % +.+.",
"+.+.% s / ( ) ' ] ] ] | | | | | |  .| } | | | | | | ' ' ) / / j % +.+.",
"+.+.% s ^ ( ( ' ] ] ] ] | | | | | ] ] | | ] | ] ' ' ' ' ( / / g % +.+.",
"+.+.% a K / ( ) ' ] ] ] ] ] ] ] ] | ] ] | ] ] ] ] ] ' ( / K ^ f % +.+.",
"+.+.% a K ^ ( ( ( ] ] ] ] ] ] ] ] ] ] ] ] ] ] ] [ ' ' ( ^ K K f % +.+.",
"+.+.% i J ^ ^ ( ( ) ) ] ] ] ] ] ] ] ] ] ] ] ] ] ' ( ( ( K K J f % +.+.",
"+.+.% 5 t n B C J J K ^ ^ ^ ^ ^ ^ ^ ^ ^ ^ ^ ^ ^ K J H B N x v 8 % +.+.",
"+.+.% 5 r z M B C C J J K K K ^ K K K K K K K J J H V m c t r 8 % +.+.",
"+.+.% 3 w t c B V C C J J J J J J K J J J K J J C V B n z w w 6 % +.+.",
"+.+.% 1 < r z n B V C C J J J J C C J J C J C C C V m c t q q 4 % +.+.",
"+.+.% 1 , w z c M B V C C C C C C C J C C C C C V M n z r < 9 4 % +.+.",
"+.+.% 1 , w t c M B V C C C C C C C C C C C C C V M n z e < 9 4 % +.+.",
"+.+.% 1 , w t c m V V C C C C C C C C C C C C C V M n z r < < 4 % +.+.",
"+.+.% 1 , w t c m B V V C C C C C C C C C C C V V M b z r < 9 4 % +.+.",
"+.+.% 1 , w t c m V V V C C C C C C C C C C C V V M n z e < < 4 % +.+.",
"+.+.% 1 , w t c m B V C C C C C C C C C C C C C B M n x r < < 4 % +.+.",
"+.+.% 1 , w t c m B V C C C C C C C C C C C C V V M b z e < < 4 % +.+.",
"+.+.% 1 , w t c n V V C C C C C C C C C C C C C V M n z r < < 4 % +.+.",
"+.+.* 2 q w t c m B V C C C C C C C C C C C C V V M n x r q e 5 * +.+.",
"+.+.T + y z n B C C C J K K K K K K K K J K K J H C V m x x N @ l +.+.",
"+.+.X.% $ 0 a d A S D D L L L L L L L L L L L D D A Z s i 7 + & { +.+.",
"  +.+.{ l = % % % % % % % % % % % % % % % % % % % % % % % = l { +.+.  ",
"    +.+.+.+.+.+.+.+.+.+.+.+.+.+.+.+.+.+.+.+.+.+.+.+.+.+.+.+.+.+.+.    ",
"      +.+.+.+.+.+.+.+.+.+.+.+.+.+.+.+.+.+.+.+.+.+.+.+.+.+.+.+.+.      "
};
