/* XPM */
static char *SD_2008_center_h[] = {
/* columns rows colors chars-per-pixel */
"31 30 87 1 ",
"  c None",
". c #4B79AA",
"X c #507FAE",
"o c #4F85AE",
"O c #5186AE",
"+ c #5589AF",
"@ c #5C8CAF",
"# c #578BB1",
"$ c #5B8DB2",
"% c #5E90B5",
"& c #6E93AE",
"* c #608FB1",
"= c #6191B6",
"- c #6893B4",
"; c #7A9BB3",
": c #12A4EF",
"> c #20A9EF",
", c #25ACF1",
"< c #34B1F1",
"1 c #3BB3F2",
"2 c #69B2DA",
"3 c #43B6F2",
"4 c #47B8F2",
"5 c #4CBAF4",
"6 c #57BFF4",
"7 c #5ABFF4",
"8 c #67B5E2",
"9 c #69B5E2",
"0 c #69B8E2",
"q c #74B9E2",
"w c #7CBCE2",
"e c #5EC1F4",
"r c #65C3F4",
"t c #6AC5F6",
"y c #71C8F5",
"u c #7CCDF6",
"i c #8E8F8F",
"p c #929393",
"a c #9D9D9D",
"s c #83A3BA",
"d c #A1A1A1",
"f c #A7ABAE",
"g c #BCBCBC",
"h c #97BCD6",
"j c #9BBED8",
"k c #9CCCE7",
"l c #82CFF6",
"z c #85D1F7",
"x c #8CD3F7",
"c c #8DD3F8",
"v c #91D4F7",
"b c #93D6F8",
"n c #9AD8F8",
"m c #AED5ED",
"M c #B6D6E9",
"N c #B4D9ED",
"B c #BCDCEE",
"V c #A4D6F1",
"C c #ACD8F2",
"Z c #A4DBF9",
"A c #ACDEF9",
"S c #B4DBF3",
"D c #BADCF2",
"F c #AEE0FA",
"G c #BEE0F4",
"H c #B4E2FA",
"J c #BBE4FA",
"K c gray79",
"L c #C1DCEF",
"P c #C1DFF1",
"I c #C3E2F5",
"U c #CCE6F4",
"Y c #C1E7FB",
"T c #C4E9FB",
"R c #CCECFC",
"E c #D3EAF5",
"W c #DBEDF7",
"Q c #D3EEFC",
"! c #DFEFF8",
"~ c #D7F0FC",
"^ c #DCF1FC",
"/ c #E7E7E7",
"( c #ECECEC",
") c #E3F4FD",
"_ c #EAF7FE",
"` c #F3F3F3",
"' c #FDFDFD",
/* pixels */
" ;#=%=====*-=*==-==*==**====-s ",
"-jDIU~~!!))))))))_))))))!!WEL.s",
"$_TR~^^_)_____`_________)_^^^M=",
"%_TQ^^^))___________`____))^^L@",
"%_T~~^)))_______________)))^^I$",
"$_TR~^^)_________________)^^^L@",
"%_JRQ~^)))_____________))^^^~B%",
"%_JTQ~^^^________)__)___^)^^~B$",
"%)HTRR~^))))__))))__))_^^^~~QB$",
"%)HYR~~^^^)_))))))))))))^~~QRB$",
"%^FJTR~~^)^))_))))))_))^^^~RRB@",
"%^ZHYRR~^^^)^^)^)^^)^)^^^~QRTN$",
"%~ZFJTR~~^^^^^)^^^^)^^!~~QRTTN@",
"%~nFJYRQ~~^^^^^^^^^^^^^~QQRYJN$",
"%~vFHJTRRQ^^^^^^^^~^^~~~RRTJJm@",
"$T3elvnZHHJJJJJJYJJIYJJHFFnvzw$",
"$J<etubZZHHHJHJHJHJHJJHAAnbzlq$",
"%J>erucnZAAHHHHHHHHJAHAAZncuuq$",
"%H:3eyzbnZAAAAHAAAAAHAAZnblyt8$",
"$H:1eyucnZZAAAAAAAAAAAZZnvlyt8@",
"%H:1eyuvnZZAAAAAAAAAAAZZnclyt8@",
"%F:1eyuvnZZAAAAAAAAAAAZZnvlyt8#",
"$H:1eyzvnZZAAAAAAAAAAAZZnvlyt8@",
"%H:1eyuvnZZAAAAAAAAAAAZZnclyt9@",
"$H:1etzvnZZFHHHHSHHHHSHAZncuu2*",
"#H:1etuxnZAHRIIIIIIIIIIJDSCVkX;",
"%H:1etzvnnAR#+++####+O+####+$; ",
"$H>4ruxbZFHL@```````gK``````d  ",
"OYtubZFHJYRh&''''''`d('''''/p  ",
" O######@++-fiiiiiipaiiiiiia   "
};
