/* XPM */
static char *SD_2008_left_h[] = {
/* columns rows colors chars-per-pixel */
"36 35 97 2 ",
"   c None",
".  c #48506C",
"X  c #525D86",
"o  c #5F6EA5",
"O  c #6B7EC3",
"+  c #1D94FD",
"@  c #209EFD",
"#  c #20A6FD",
"$  c #21ABFD",
"%  c #4A8EC0",
"&  c #4A90C5",
"*  c #5E97C1",
"=  c #7284C6",
"-  c #639AC2",
";  c #758BDD",
":  c #4DBBF3",
">  c #4AB3FD",
",  c #48B9FF",
"<  c #51BDF3",
"1  c #00C1FA",
"2  c #0BC0FA",
"3  c #00CCFD",
"4  c #03D1FD",
"5  c #13DBFD",
"6  c #1DDCFD",
"7  c #20DDFD",
"8  c #25E0FD",
"9  c #2BE4FD",
"0  c #5CC1F5",
"q  c #41DDFC",
"w  c #64C4F5",
"e  c #6CC7F5",
"r  c #70C7F5",
"t  c #74CAF6",
"y  c #7CCDF6",
"u  c #78D1F7",
"i  c #4EE1FD",
"p  c #61E6FE",
"a  c #68E7FD",
"s  c #66ECFE",
"d  c #6BEBFE",
"f  c #70EBFE",
"g  c #7AECFE",
"h  c #74F2FE",
"j  c #7CF5FF",
"k  c #8497E1",
"l  c #BDC3C5",
"z  c #83CFF7",
"x  c #85D0F7",
"c  c #8BD2F7",
"v  c #92D4F7",
"b  c #94D6F8",
"n  c #98D7F8",
"m  c #9CD9F8",
"M  c #BBC6EE",
"N  c #A4DBF9",
"B  c #ACDEF9",
"V  c #85ECFE",
"C  c #8DEDFE",
"Z  c #95EEFE",
"A  c #9CEFFE",
"S  c #84F5FF",
"D  c #8DF1FE",
"F  c #87F9FF",
"G  c #89FAFF",
"H  c #AEE0F9",
"J  c #B3E1FA",
"K  c #BAE4FA",
"L  c #A3F0FE",
"P  c #ACFAFF",
"I  c #B5FAFF",
"U  c #BCFBFF",
"Y  c #C2C5C6",
"T  c #C7C9CE",
"R  c #C7CEE8",
"E  c #D4D7E1",
"W  c #D2D9F4",
"Q  c #DFE0E5",
"!  c #DFE2ED",
"~  c #C4E9FB",
"^  c #CCECFB",
"/  c #D8E0FA",
"(  c #D4EFFC",
")  c #CFF1FC",
"_  c #C4FBFF",
"`  c #CBFCFF",
"'  c #D6F0FD",
"]  c #DCF2FC",
"[  c #EFEFEF",
"{  c #E8ECFC",
"}  c #E3F4FD",
"|  c #EAF7FE",
" . c #EDF8FD",
".. c #F2F2F2",
"X. c #F0F3FD",
"o. c #F1F9FE",
"O. c #FFFFFF",
/* pixels */
"      O.O.O.O.O.O.O.O.O.O.O.O.O.O.O.O.O.O.O.O.O.O.O.O.O.O.O.O.O.O.      ",
"    O.O.O.O.O.O.O.O.O.O.O.O.O.O.O.O.O.O.O.O.O.O.O.O.O.O.O.O.O.O.O.O.    ",
"  O.O...Y - % % % % % & % % % % % % % % % % % % % % % % % % - Y ..O.O.  ",
"O.O...& , S P I U _ _ _ ` ` ` ` ` ` ` ` ` ` ` ` ` _ _ U U P C , & ..O.O.",
"O.O.Y > ^ ] ] } } }  . .| | | |  .| | |  .| | |  .} } } } } ] ] > l O.O.",
"O.O.* s ( ] ] } }  .}  .| |  . .|  . .| |  .| |  . . . .} ] ] ] h * O.O.",
"O.O.% j ' ' } } } } | | |  .| | | |  .| | | | | }  .} } } ] ] ] G % O.O.",
"O.O.& j ( ' ] } } } | | | | | |  .| |  . .|  .|  .}  .} } ] ] ] G % O.O.",
"O.O.% j ' ' ] } } } }  . .| |  .| | | | | | | |  .} | } ] ] ] ] F % O.O.",
"O.O.% j ^ ' ] ] } }  .} } | | | | } | | | | | | }  .} } } ] ' ' F % O.O.",
"O.O.% h ^ ' ' ] ] } } } | | } | | | | | | } | } }  .} } ] ] ' ' F % O.O.",
"O.O.% h ~ ( ( ] ] } } } } } | } } } | } } | } } } } } ] } ] ) ' S % O.O.",
"O.O.% h ~ ^ ' ' ] ] } } } } } } } } } } } } } } } } ] | W o.' ^ S % O.O.",
"O.O.% f ~ ^ ^ ' ] ] ] ] } } } } } } } } } } } } ] } o.R k / ] ^ S % O.O.",
"O.O.% d K ~ ^ ' ' ' ] ] ] } } } ] } } ] } } } } ] O.! = ; / ' ^ j % O.O.",
"O.O.% d K ~ ~ ^ ' ' ] ] ] ] ] ] ] ] } ] ] ] ] } ..E o = ; / ' ~ j % O.O.",
"O.O.% s J K ~ ^ ( ( ( ] ' { ] ] ] ] ] ] ] ] ] o.Q X o O ; / ( ~ j % O.O.",
"O.O.% p H K ~ ~ ^ ^ ( ] ] ( ] ( ] ] ( ] ] ! } T . X o O ; / ( K g % O.O.",
"O.O.% 4 t x n m B B J K K K K ~ K ~ K ~ ~ K K { Q X o O ; / B c 9 % O.O.",
"O.O.% 3 w y c n n B B J J K K K J K J J K J J ~ o.E o O ; / N z 9 % O.O.",
"O.O.% 1 0 r z c n N B B B K J J J J J J J J J J J O.! = ; / N y 8 % O.O.",
"O.O.% 1 < w y c n m N B B B B B H H H H B B B J B N ' R k / n r 7 % O.O.",
"O.O.% 1 : w y z v n n B B B B B H B B B B B B B N N m ^ M { x r 6 % O.O.",
"O.O.% 1 : w t z v n N N B B B B B B B B B B B B B N m m ~ v e e 6 % O.O.",
"O.O.% 1 : w t z v n N N B B B B B B B B B B B B B N m n c y e e 6 % O.O.",
"O.O.% 1 : w y z v n N B B B B B H B B B B B B B B N m v c y e e 6 % O.O.",
"O.O.% 1 : w t z c n N N B B B B B B B H B B B B N N m n c y e e 6 % O.O.",
"O.O.% 1 : w y z v n N B N B B B B B B B B B B B B N m n c y e e 6 % O.O.",
"O.O.% 1 : w t z v n N N B B B B B B B B B B B B B N m n c y e r 7 % O.O.",
"O.O.* 2 < e y x v n N N B B B B B B B B B B B B B N m n c y r y 5 * O.O.",
"O.O.l + y y c n N N H B J K K K K K K K K K J K J J B N m c v H + l O.O.",
"O.O...% # q a g V Z A A L L L L L L L L L L L L A A Z C g d i $ & ..O.O.",
"  O.O.[ l - % % % % % % % % % % % % % % % % % % % % % % % % - l [ O.O.  ",
"    O.O.O.O.O.O.O.O.O.O.O.O.O.O.O.O.O.O.O.O.O.O.O.O.O.O.O.O.O.O.O.O.    ",
"      O.O.O.O.O.O.O.O.O.O.O.O.O.O.O.O.O.O.O.O.O.O.O.O.O.O.O.O.O.O.      "
};
