/* XPM */
static char *SD_2008_top_h[] = {
/* columns rows colors chars-per-pixel */
"35 36 96 2 ",
"   c None",
".  c #48506C",
"X  c #525D86",
"o  c #5F6EA5",
"O  c #6B7EC3",
"+  c #1D96FD",
"@  c #2091FD",
"#  c #21A2FD",
"$  c #20A8FD",
"%  c #4A8EC0",
"&  c #4A90C5",
"*  c #5E97C1",
"=  c #639AC2",
"-  c #758BDD",
";  c #4AA9FD",
":  c #49B3FE",
">  c #48B9FF",
",  c #54BDF3",
"<  c #5ABFF4",
"1  c #00C3FA",
"2  c #0BC2FA",
"3  c #00CBFD",
"4  c #01D4FC",
"5  c #0ED5FD",
"6  c #03DBFC",
"7  c #3CDEFD",
"8  c #0BE3FF",
"9  c #5DC1F3",
"0  c #49DEFC",
"q  c #63C3F4",
"w  c #6BC6F5",
"e  c #6DC8F6",
"r  c #71C8F5",
"t  c #7CCDF6",
"y  c #7CD3F7",
"u  c #5BF1FD",
"i  c #65E6FE",
"p  c #64EFFF",
"a  c #6CEBFE",
"s  c #73EDFE",
"d  c #7EEBFE",
"f  c #66F1FF",
"g  c #6CF4FF",
"h  c #7CF4FF",
"j  c #73F9FF",
"k  c #879AE1",
"l  c #BDC3C5",
"z  c #82CFF6",
"x  c #84D0F7",
"c  c #8BD2F7",
"v  c #84D1F8",
"b  c #8CD3F8",
"n  c #91D4F7",
"m  c #94D6F8",
"M  c #99D7F8",
"N  c #90DAF8",
"B  c #9CD9F8",
"V  c #A4DBF9",
"C  c #ACDEF9",
"Z  c #84EBFE",
"A  c #8DEDFE",
"S  c #93EEFE",
"D  c #9CEFFE",
"F  c #81F5FF",
"G  c #8CF1FE",
"H  c #AEE0FA",
"J  c #B4E1FA",
"K  c #BBE4FA",
"L  c #A3F0FE",
"P  c #A6FAFF",
"I  c #AEFAFF",
"U  c #B5FAFF",
"Y  c #BCFBFF",
"T  c #C2C5C6",
"R  c #D2D4DB",
"E  c #D9DADE",
"W  c #CBD1EA",
"Q  c #D0D4E5",
"!  c #C5CEF1",
"~  c #CBD3F2",
"^  c #C1E7FB",
"/  c #C4E9FB",
"(  c #CCEBFB",
")  c #D4EEFC",
"_  c #C4FBFF",
"`  c #CBFCFF",
"'  c #D6F0FC",
"]  c #DCF1FD",
"[  c #E0E2EA",
"{  c #EFEFEF",
"}  c #E5EAFC",
"|  c #E3F4FD",
" . c #EAF7FE",
".. c #F2F2F2",
"X. c #F2F5FD",
"o. c #FFFFFF",
/* pixels */
"      o.o.o.o.o.o.o.o.o.o.o.o.o.o.o.o.o.o.o.o.o.o.o.o.o.o.o.o.o.      ",
"    o.o.o.o.o.o.o.o.o.o.o.o.o.o.o.o.o.o.o.o.o.o.o.o.o.o.o.o.o.o.o.    ",
"  o.o...T = % % % % % & % % % % % % % % % % % & % % % % % = l ..o.o.  ",
"o.o...& > G I U Y _ _ _ ` ` ` ` ` ` ` ` ` ` ` ` _ _ Y U P F : & ..o.o.",
"o.o.l : ' ] ] | |  . . . . . .X. . .X. . . . . . . .| ] ] ] ' ; l o.o.",
"o.o.* g ' ] | | |  . . . . . . . . . . . . . . . . .| | ] ' ' u * o.o.",
"o.o.% F ' ] ] | |  . . . .X. .X. .X. . . . . . .|  .| | ] ' ' j % o.o.",
"o.o.& F ' ] ] | |  . . . . . . . .X. . . . . . . .| | | ] ] ' j % o.o.",
"o.o.% h ) ' ] | |  . . . . . . . . . . . . . . . .| | ] ] ' ' j % o.o.",
"o.o.% h ) ] ] | | |  . . . . . . . . . . . . . . .|  .] ] ' ' j % o.o.",
"o.o.% h ) ) ] ] | | | |  .|  . . . . .|  .|  .| | | ] ] ' ' ( j % o.o.",
"o.o.% h ( ) ' ] ] |  .|  .| | | | |  .|  .| | | | ] ] ] ' ( ( g % o.o.",
"o.o.% h / ) ) ' ] | | | | | | | | | |  .| | | | | | ' ' ( ( ( g % o.o.",
"o.o.% s / ( ) ' ] ] | | | | | | | | | | | | | | ] ] ' ' ( ( ( g % o.o.",
"o.o.% s ^ ( ( ' ' ] ] ] ] | | | ] | | ] | | | | ] ' ' ' ( / K g % o.o.",
"o.o.% a K ^ ( ' ' ] ] ] ] ] ] ] ] ] | ] ] ] ] ] ] ' ( ( ( / K f % o.o.",
"o.o.% a K ^ ( ( ) ) ] ] ] ] ] ] ] ] ] ] ] ] ] ] ) ) ) ( / K K f % o.o.",
"o.o.% i J K / ( ( ) ) ] ] ] ] ] ] ] ] ] ] ] ] ) ] ) ( / ^ J J f % o.o.",
"o.o.% 5 t n B C J J ^ ^ ^ ^ ^ ^ ^ ^ ^ ^ ^ ^ ^ K K J C V n z z 8 % o.o.",
"o.o.% 5 r x n V V J J J K J K K K K K K K K K K J C V M c t t 6 % o.o.",
"o.o.% 3 w t c B V C J J K J J K J J K K J J K C H V B n z r r 6 % o.o.",
"o.o.% 1 < r z m B V C C J J C J J J C J J C C C C V n c t q q 4 % o.o.",
"o.o.% 1 , w z c m V V C C C C C C K C C C C C C V M n z r < < 4 % o.o.",
"o.o.% 1 , w t c m B V V C C C C o.E o.C C C C C V M n z r < < 4 % o.o.",
"o.o.% 1 , w t c M B V C C C C o.R . R ..C C C C V M n z r < < 4 % o.o.",
"o.o.% 1 , w t c n B V V C C ] [ X X X [ ] C C V V M n z r < 9 4 % o.o.",
"o.o.% 1 , w t c n V V C C } Q o o o o o Q ] C V V M n z r < , 4 % o.o.",
"o.o.% 1 , w t c n V V V ) W O O O O O O O W ) C B M n z r < 9 4 % o.o.",
"o.o.% 1 , w t c m B V ( ~ k - - - - - - - k W ( V M b z r < < 4 % o.o.",
"o.o.% 1 , w t c m B V J X.} } } } } } } } }  .H V M n z r , 9 4 % o.o.",
"o.o.* 2 q w t c M V V V K K K K K K ^ ^ K K J V V M n x r q r 5 * o.o.",
"o.o.T + y z n B V C J J K K J K K K K K K K K J H C V m x x b + l o.o.",
"o.o...% $ 0 a d A S D D L L L L L L L L L L L D D A Z s i 7 + & { o.o.",
"o.o.o.{ l = % % % % % % % % % % % % % % % % % % % % % % % = l { o.o.o.",
"  o.o.o.o.o.o.o.o.o.o.o.o.o.o.o.o.o.o.o.o.o.o.o.o.o.o.o.o.o.o.o.o.o.  ",
"    o.o.o.o.o.o.o.o.o.o.o.o.o.o.o.o.o.o.o.o.o.o.o.o.o.o.o.o.o.o.o.    "
};
