/* XPM */
static char *SD_2008_top[] = {
/* columns rows colors chars-per-pixel */
"35 36 70 1 ",
"  c None",
". c #48506C",
"X c #525D86",
"o c #5F6EA5",
"O c #6B7EC3",
"+ c #758BDD",
"@ c #8E8F8F",
"# c #919292",
"$ c #929393",
"% c #979898",
"& c #999A9A",
"* c #9A9B9B",
"= c #879AE1",
"- c #C1C1C1",
"; c gray76",
": c #C2C3C3",
"> c #C3C4C4",
", c #C5C5C5",
"< c #C8C8C8",
"1 c #C9CACA",
"2 c #D2D3D3",
"3 c gray83",
"4 c #D2D4DB",
"5 c #D8D8D8",
"6 c gray85",
"7 c #DADADA",
"8 c gray86",
"9 c #D9DADE",
"0 c gainsboro",
"q c gray87",
"w c #DFDFDF",
"e c #CBD1EA",
"r c #D0D4E5",
"t c #C5CEF1",
"y c #CBD3F2",
"u c gray88",
"i c #E1E1E1",
"p c #E2E2E2",
"a c gray89",
"s c #E4E4E4",
"d c gray90",
"f c #E7E7E7",
"g c #E0E2EA",
"h c gray91",
"j c #E9E9E9",
"k c #EAEAEA",
"l c gray92",
"z c #ECECEC",
"x c #EEEEEE",
"c c #EFEFEF",
"v c #E5EAFC",
"b c gray94",
"n c #F0F1F1",
"m c gray95",
"M c #F3F3F3",
"N c #F4F4F4",
"B c gray96",
"V c #F6F6F6",
"C c gray97",
"Z c #F1F4FD",
"A c #F3F5FD",
"S c #F8F8F8",
"D c #F9F9F9",
"F c #F9F9FA",
"G c gray98",
"H c #FBFBFB",
"J c gray99",
"K c #FDFDFD",
"L c #FEFEFE",
"P c white",
/* pixels */
"   PPPPPPPPPPPPPPPPPPPPPPPPPPPPP   ",
"  PPPPPPPPPPPPPPPPPPPPPPPPPPPPPPP  ",
" PPM,*@@@@@@@@@@@@@@@@@@@@@@@*,MPP ",
"PPm$2VLLLLLLLLLLLLLLLLLLLLLLLV2$mPP",
"PP>3LLLLLLLLLLLLLLLLLLLLLLLLLLL3>PP",
"PP%SLLLLLLLLLLLLLLLLLLLLLLLLLLLD%PP",
"PP@LLLLLLLLLLLLLLLLLLLLLLLLLLLLP@PP",
"PP@LLLLLLLLLLLLLLLLLLLLLLLLLLLLP@PP",
"PP@LLLLLLLLLLLLLLLLLLLLLLLLLLLLL@PP",
"PP@LKKKKKKKKKKKKKKKKKKKKKKKKKKKL@PP",
"PP@KJJJJJJJJJJJJJJJJJJJJJJJJJJKL@PP",
"PP@JHHHHHHHHHHHHHHHHHHHHHHHHHHJL@PP",
"PP@HGGGGGGGGGGGGGGGGGGGGGGGGGGGK@PP",
"PP@GSSSSSSSSSSSSSSSSSSSSSSSSSSDJ@PP",
"PP@GCCCCCCCCCCCCCCCCCCCCCCCCCCSJ@PP",
"PP@SBBBBBBBBBBBBBBBBBBBBBBBBBBCH@PP",
"PP@CNNNNNNNNNNNNNNNNNNNNNNNNNNVH@PP",
"PP@VmmmmmmmmmmmmmmmmmmmmmmmmmmNG@PP",
"PP@xfffffffffffffffffffffffffflV@PP",
"PP@zaaaaaaaaaaaaaaaaaaaaaaaaaafN@PP",
"PP@jwwwwwwwwwwwwwwwwwwwwwwwwwwsM@PP",
"PP@f00000000000000000000000000im@PP",
"PP@d6666666666666i666666666666wb@PP",
"PP@s555555555556K9K65555555555qb@PP",
"PP@s55555555556F4.4F6555555555qb@PP",
"PP@s5555555555cgXXXgc555555555qb@PP",
"PP@s555555555crooooorc55555555qb@PP",
"PP@s55555555keOOOOOOOek5555555qb@PP",
"PP@s5555555fy=+++++++=tj555555qb@PP",
"PP@d55555550AvvvvvvvvvZ0555555qb@PP",
"PP%i855555550uuuuuuuuu05555557pz%PP",
"PP>:dwqqqqqqqqqqqqqqqqqqqqqqqpz<;PP",
"PPm#<hbbbbbbbbbbbbbbbbbbbbbbbk1#nPP",
"PPPc-&@@@@@@@@@@@@@@@@@@@@@@@&-cPPP",
" PPPPPPPPPPPPPPPPPPPPPPPPPPPPPPPPP ",
"  PPPPPPPPPPPPPPPPPPPPPPPPPPPPPPP  "
};
