/* XPM */
static char *SD_2008_center[] = {
/* columns rows colors chars-per-pixel */
"31 30 71 1 ",
"  c None",
". c #8E8F8F",
"X c #919292",
"o c #929393",
"O c #939494",
"+ c #949595",
"@ c #959696",
"# c #969797",
"$ c #979898",
"% c #989999",
"& c #999A9A",
"* c #9A9A9A",
"= c #9A9B9B",
"- c #9B9B9B",
"; c #9B9C9C",
": c #9C9D9D",
"> c #9D9E9E",
", c gray62",
"< c #9E9F9F",
"1 c #9FA0A0",
"2 c #A0A1A1",
"3 c gray63",
"4 c #A3A4A4",
"5 c #A5A6A6",
"6 c #A9AAAA",
"7 c gray67",
"8 c #ADAEAE",
"9 c #B0B1B1",
"0 c #B7B8B8",
"q c #BCBCBC",
"w c #BDBEBE",
"e c gray75",
"r c #C4C5C5",
"t c gray79",
"y c #D8D8D8",
"u c gray85",
"i c #DADADA",
"p c #DADBDB",
"a c gray86",
"s c #DBDCDC",
"d c gainsboro",
"f c #DDDDDD",
"g c gray87",
"h c #DFDFDF",
"j c gray88",
"k c #E1E1E1",
"l c #E2E2E2",
"z c #E4E4E4",
"x c gray90",
"c c #E6E6E6",
"v c #E7E7E7",
"b c gray91",
"n c #ECECEC",
"m c #EEEEEE",
"M c #EFEFEF",
"N c gray94",
"B c #F1F1F1",
"V c gray95",
"C c #F3F3F3",
"Z c #F3F4F4",
"A c #F4F4F4",
"S c gray96",
"D c #F6F6F6",
"F c gray97",
"G c #F8F8F8",
"H c #F9F9F9",
"J c gray98",
"K c #FBFBFB",
"L c gray99",
"P c #FDFDFD",
"I c #FEFEFE",
/* pixels */
" 0;12222222222222222222222225e ",
"6rAFFFFFFFFFFFFFFFFFFFFFFFFFNee",
">IIIIIIIIIIIIIIIIIIIIIIIIIIIIN4",
"<IIIIIIIIIIIIIIIIIIIIIIIIIIIIC<",
"<IIIIIIIIIIIIIIIIIIIIIIIIIIIIC<",
"<PIIIIIIIIIIIIIIIIIIIIIIIIIIIC<",
"<LPPPPPPPPPPPPPPPPPPPPPPPPPPPC<",
"<LLLLLLLLLLLLLLLLLLLLLLLLLLLLC,",
"<JJJJJJJJJJJJJJJJJJJJJJJJJJJKV,",
">GHHHHHHHHHHHHHHHHHHHHHHHHHHJB>",
">FGGGGGGGGGGGGGGGGGGGGGGGGGGGB>",
">SFFFFFFFFFFFFFFFFFFFFFFFFFFFN>",
">CSSSSSSSSSSSSSSSSSSSSSSSSSSDM>",
">VCCCCCCCCCCCCCCCCCCCCCCCCCCSM>",
">MBBBBBBBBBBBBBBBBBBBBBBBBBBCm>",
":bxxxxxxxxxxxxxxxxxxxxxxxxxxbl:",
";zkkkkkkkkkkkkkkkkkkkkkkkkkkzk:",
";kffffffffffffffffffffffffffjh;",
";giiiiiiiiiiiiiiiiiiiiiiiiiigf;",
";dyyyyyyyyyyyyyyyyyyyyyyyyyydd;",
";dyyyyyyyyyyyyyyyyyyyyyyyyyydd;",
"-dyyyyyyyyyyyyyyyyyyyyyyyyyydd;",
"-dyyyyyyyyyyyyyyyyyyyyyyyyyydd;",
"=dyyyyyyyyyyyyyyyyyyyyyyyyyydd-",
"&dyyyyyyyyyuadddddddddddddddjp<",
"&dyyyyyyyyugcjjjjjjjjjjjjjjjs99",
"=dyyyyyyyyav%$$$$$$%@@$$$$$%#7 ",
"*giiiiiiiigf;CVVVVCFqtVVVVAH2  ",
"+jxxxxxxxxbw2JIIIIIZ3nIIIIIvo  ",
" o$$$$$$$$$48X.....O;......,   "
};
