/* XPM */
static char *SD_2008_bottom[] = {
/* columns rows colors chars-per-pixel */
"35 36 69 1 ",
"  c None",
". c #48506C",
"X c #525D86",
"o c #5F6EA5",
"O c #6B7EC3",
"+ c #758BDD",
"@ c #8E8F8F",
"# c #919292",
"$ c #929393",
"% c #979898",
"& c #999A9A",
"* c #9A9B9B",
"= c #879AE1",
"- c #C1C1C1",
"; c gray76",
": c #C2C3C3",
"> c #C3C4C4",
", c #C5C5C5",
"< c #C8C8C8",
"1 c #C9CACA",
"2 c #D2D3D3",
"3 c gray83",
"4 c #D2D4DB",
"5 c #D8D8D8",
"6 c gray85",
"7 c #DADADA",
"8 c gray86",
"9 c #D9DADE",
"0 c gainsboro",
"q c gray87",
"w c #DFDFDF",
"e c #CBD1EA",
"r c #D0D4E5",
"t c #C5CEF1",
"y c #CBD3F2",
"u c #E1E1E1",
"i c #E2E2E2",
"p c gray89",
"a c #E4E4E4",
"s c gray90",
"d c #E7E7E7",
"f c #E0E2EA",
"g c gray91",
"h c #E9E9E9",
"j c #EAEAEA",
"k c gray92",
"l c #ECECEC",
"z c #EEEEEE",
"x c #EFEFEF",
"c c #E5EAFC",
"v c gray94",
"b c #F0F1F1",
"n c gray95",
"m c #F3F3F3",
"M c #F4F4F4",
"N c gray96",
"B c #F6F6F6",
"V c gray97",
"C c #F1F4FD",
"Z c #F3F5FD",
"A c #F8F8F8",
"S c #F9F9F9",
"D c #F9F9FA",
"F c gray98",
"G c #FBFBFB",
"H c gray99",
"J c #FDFDFD",
"K c #FEFEFE",
"L c white",
/* pixels */
"   LLLLLLLLLLLLLLLLLLLLLLLLLLLLL   ",
"  LLLLLLLLLLLLLLLLLLLLLLLLLLLLLLL  ",
" LLm,*@@@@@@@@@@@@@@@@@@@@@@@*,mLL ",
"LLn$2BKKKKKKKKKKKKKKKKKKKKKKKB2$nLL",
"LL>3KKKKKKKKKKKKKKKKKKKKKKKKKKK3>LL",
"LL%AKKKKKKKKKKKKKKKKKKKKKKKKKKKS%LL",
"LL@KKKKKKKKKZcccccccccCKKKKKKKKL@LL",
"LL@KKKKKKKKKy=+++++++=tKKKKKKKKL@LL",
"LL@KKKKKKKKKKeOOOOOOOeKKKKKKKKKK@LL",
"LL@KJJJJJJJJJKrooooorKJJJJJJJJJK@LL",
"LL@JHHHHHHHHHHKfXXXfKHHHHHHHHHJK@LL",
"LL@HGGGGGGGGGGGD4.4DGGGGGGGGGGHK@LL",
"LL@GFFFFFFFFFFFFJ9JFFFFFFFFFFFFJ@LL",
"LL@FAAAAAAAAAAAAASAAAAAAAAAAAASH@LL",
"LL@FVVVVVVVVVVVVVVVVVVVVVVVVVVAH@LL",
"LL@ANNNNNNNNNNNNNNNNNNNNNNNNNNVG@LL",
"LL@VMMMMMMMMMMMMMMMMMMMMMMMMMMBG@LL",
"LL@BnnnnnnnnnnnnnnnnnnnnnnnnnnMF@LL",
"LL@zddddddddddddddddddddddddddkB@LL",
"LL@lppppppppppppppppppppppppppdM@LL",
"LL@hwwwwwwwwwwwwwwwwwwwwwwwwwwam@LL",
"LL@d00000000000000000000000000un@LL",
"LL@s66666666666666666666666666wv@LL",
"LL@a55555555555555555555555555qv@LL",
"LL@a55555555555555555555555555qv@LL",
"LL@a55555555555555555555555555qv@LL",
"LL@a55555555555555555555555555qv@LL",
"LL@a55555555555555555555555555qv@LL",
"LL@a55555555555555555555555555qv@LL",
"LL@s55555555555555555555555555qv@LL",
"LL%u85555555555555555555555557il%LL",
"LL>:swqqqqqqqqqqqqqqqqqqqqqqqil<;LL",
"LLn#<gvvvvvvvvvvvvvvvvvvvvvvvj1#bLL",
" LLx-&@@@@@@@@@@@@@@@@@@@@@@@&-xLL ",
"  LLLLLLLLLLLLLLLLLLLLLLLLLLLLLLL  ",
"   LLLLLLLLLLLLLLLLLLLLLLLLLLLLL   "
};
